#!OML:ASF F:\twosubjects\two\Thursday\Session 1\Rory.ASF
:FULLY-SPECIFIED
:DEGREES
584
root 10.7782 18.5126 14.4643 -158.069 -7.16933 -177.783
lowerback 20.0322 -0.605494 -7.36445
upperback 8.62619 -3.81219 -1.79285
thorax -1.54104 -2.67515 3.05618
lowerneck -6.49123 -12.3215 -11.4762
upperneck 7.59403 -18.1369 24.5883
head 6.88088 -7.87375 8.03676
rclavicle -5.08889e-014 -3.97569e-014
rhumerus 8.40065 -39.2063 -77.8582
rradius 73.5764
rwrist -10.2787
rhand -32.553 36.7192
rfingers 7.12502
rthumb -5.78263 6.81807
lclavicle -5.08889e-014 -3.97569e-014
lhumerus -14.6671 -35.1412 81.5841
lradius 58.8384
lwrist 4.80139
lhand -11.7196 27.7051
lfingers 7.12502
lthumb 14.3272 57.1908
rfemur -25.1297 4.13305 13.4012
rtibia 46.6913
rfoot -17.4163 -3.03367
rtoes -13.518
lfemur -41.4385 -1.20234 -20.7423
ltibia 33.2234
lfoot -10.3747 0.658559
ltoes 19.6719
585
root 10.7613 18.5269 14.4368 -158.317 -7.18021 -177.969
lowerback 19.8199 -0.754955 -7.18844
upperback 8.59484 -3.93508 -1.74085
thorax -1.46228 -2.72731 3.02563
lowerneck -6.97895 -12.2593 -11.5046
upperneck 8.16084 -18.0792 24.27
head 7.09952 -7.79712 7.92136
rclavicle 9.70069e-014 1.59028e-014
rhumerus 8.90062 -39.2875 -78.909
rradius 73.6534
rwrist -10.0261
rhand -31.4879 35.092
rfingers 7.12502
rthumb -4.75429 5.16536
lclavicle 9.70069e-014 1.59028e-014
lhumerus -15.0357 -34.0464 81.9981
lradius 59.0508
lwrist 5.07469
lhand -11.7332 27.4847
lfingers 7.12502
lthumb 14.3141 56.9713
rfemur -25.2448 4.21815 13.3738
rtibia 46.1152
rfoot -18.0224 -2.2018
rtoes -8.37716
lfemur -40.6958 -1.29591 -20.9678
ltibia 32.8203
lfoot -10.5631 0.464676
ltoes 20.4656
586
root 10.7501 18.508 14.4103 -158.474 -7.1231 -178.204
lowerback 19.4497 -0.861888 -7.0933
upperback 8.51284 -3.99264 -1.73212
thorax -1.36116 -2.74212 2.97408
lowerneck -7.18261 -12.1825 -11.4835
upperneck 8.58971 -17.987 23.9358
head 7.21077 -7.734 7.81244
rclavicle -8.42847e-014 -9.06458e-014
rhumerus 9.23845 -39.3458 -80.0559
rradius 74.0597
rwrist -9.86541
rhand -31.1228 34.1749
rfingers 7.12502
rthumb -4.40168 4.24066
lclavicle -8.42847e-014 -9.06458e-014
lhumerus -15.7063 -33.2303 82.4475
lradius 59.4496
lwrist 4.7073
lhand -11.8649 27.6765
lfingers 7.12502
lthumb 14.1871 57.172
rfemur -25.7807 4.45514 13.2867
rtibia 45.323
rfoot -17.9715 -1.72665
rtoes -5.72713
lfemur -40.2187 -1.23646 -21.3075
ltibia 32.5626
lfoot -10.9315 0.307892
ltoes 21.3105
587
root 10.7324 18.5266 14.3769 -158.756 -7.04224 -178.413
lowerback 19.1724 -0.934066 -6.87462
upperback 8.46673 -4.01154 -1.83822
thorax -1.29108 -2.73871 2.72895
lowerneck -6.87318 -12.1607 -11.1436
upperneck 8.51912 -17.9566 23.8278
head 7.08072 -7.73439 7.74176
rclavicle 4.45278e-014 -1.11319e-014
rhumerus 9.0934 -39.2561 -80.9873
rradius 74.7731
rwrist -9.76903
rhand -31.4279 34.052
rfingers 7.12502
rthumb -4.69634 4.12405
lclavicle 4.45278e-014 -1.11319e-014
lhumerus -16.3688 -32.5996 82.6844
lradius 60.0074
lwrist 4.47197
lhand -12.0153 27.42
lfingers 7.12502
lthumb 14.0423 56.9257
rfemur -26.3348 5.42352 12.8745
rtibia 44.6894
rfoot -18.279 0.376411
rtoes 7.74869
lfemur -39.5228 -1.16221 -21.6447
ltibia 32.1952
lfoot -10.72 0.27863
ltoes 19.3145
588
root 10.7154 18.5298 14.3531 -159.068 -6.9525 -178.51
lowerback 19.1432 -1.09752 -6.52894
upperback 8.34831 -4.14659 -1.9299
thorax -1.42389 -2.77875 2.46887
lowerneck -6.85065 -12.1132 -10.7896
upperneck 8.77998 -17.9138 23.5408
head 7.08243 -7.69964 7.59835
rclavicle 3.49861e-014 -7.95139e-015
rhumerus 8.78286 -38.8006 -81.8283
rradius 75.4805
rwrist -9.54561
rhand -31.8944 34.5155
rfingers 7.12502
rthumb -5.14673 4.598
lclavicle 3.49861e-014 -7.95139e-015
lhumerus -16.9703 -31.5006 82.9316
lradius 60.5267
lwrist 4.88312
lhand -11.4331 27.1765
lfingers 7.12502
lthumb 14.6033 56.6423
rfemur -26.1727 4.83088 13.3522
rtibia 44.1211
rfoot -18.6378 -2.24733
rtoes -7.89441
lfemur -38.9346 -1.31515 -21.7499
ltibia 31.9659
lfoot -10.531 0.473348
ltoes 17.568
589
root 10.7004 18.5369 14.3282 -159.27 -6.71493 -178.44
lowerback 18.9061 -1.28377 -6.1935
upperback 8.25984 -4.28526 -1.90259
thorax -1.40794 -2.82694 2.32607
lowerneck -7.01195 -11.9651 -10.7718
upperneck 9.00122 -17.6964 23.3141
head 7.11264 -7.58375 7.54668
rclavicle 3.49861e-014 4.45278e-014
rhumerus 8.3796 -37.717 -82.4416
rradius 76.3651
rwrist -9.31507
rhand -32.6076 34.6003
rfingers 7.12502
rthumb -5.83533 4.70061
lclavicle 3.49861e-014 4.45278e-014
lhumerus -17.505 -29.9824 83.1593
lradius 61.1837
lwrist 5.67174
lhand -8.61468 28.8877
lfingers 7.12502
lthumb 17.3173 58.1362
rfemur -26.4553 4.78749 13.6872
rtibia 43.7349
rfoot -18.8848 -3.25391
rtoes -12.7814
lfemur -38.3908 -1.3448 -21.6917
ltibia 31.5486
lfoot -10.572 0.760568
ltoes 17.5434
590
root 10.6796 18.5614 14.2966 -159.404 -6.37487 -178.492
lowerback 18.3415 -1.47629 -6.17609
upperback 8.28289 -4.468 -1.79205
thorax -1.06881 -2.92381 2.42686
lowerneck -7.28162 -11.7286 -10.7977
upperneck 9.07032 -17.3085 22.9751
head 7.07538 -7.40195 7.48131
rclavicle 7.95139e-015 5.08889e-014
rhumerus 8.10021 -36.1135 -82.8642
rradius 77.2498
rwrist -9.25531
rhand -33.2117 34.6228
rfingers 7.12502
rthumb -6.41862 4.74007
lclavicle 7.95139e-015 5.08889e-014
lhumerus -18.1823 -28.4776 83.4616
lradius 61.4314
lwrist 4.82378
lhand -7.79504 29.3133
lfingers 7.12502
lthumb 18.106 58.4906
rfemur -27.0128 4.97517 13.6652
rtibia 43.5517
rfoot -19.4595 -3.06318
rtoes -12.4239
lfemur -37.8187 -1.25917 -21.843
ltibia 31.1094
lfoot -10.6288 0.949454
ltoes 17.4648
591
root 10.6594 18.5896 14.2696 -159.703 -6.02245 -178.702
lowerback 18.0831 -1.58688 -6.44189
upperback 8.31924 -4.63223 -1.6339
thorax -0.846387 -3.02439 2.74863
lowerneck -7.71861 -11.5452 -10.6083
upperneck 9.31849 -17.004 22.3138
head 7.08615 -7.25533 7.25023
rclavicle 1.74931e-014 3.02153e-014
rhumerus 8.50769 -34.9563 -83.7123
rradius 77.6044
rwrist -8.75848
rhand -33.2443 35.5414
rfingers 7.12502
rthumb -6.4501 5.65964
lclavicle 1.74931e-014 3.02153e-014
lhumerus -18.7388 -26.995 83.7625
lradius 61.8901
lwrist 5.28523
lhand -8.97627 29.2209
lfingers 7.12502
lthumb 16.9693 58.4997
rfemur -27.483 5.36804 13.4329
rtibia 43.316
rfoot -19.9028 -2.88255
rtoes -11.1207
lfemur -37.0035 -1.17069 -22.1572
ltibia 30.6119
lfoot -10.609 0.913619
ltoes 18.6464
592
root 10.6452 18.6097 14.2516 -160.129 -5.61398 -178.798
lowerback 18.1801 -1.58732 -6.5154
upperback 8.29008 -4.65656 -1.56104
thorax -0.913024 -3.03934 2.87862
lowerneck -8.12935 -11.4006 -10.2075
upperneck 9.71857 -16.7957 21.653
head 7.14196 -7.1361 6.97568
rclavicle -2.22639e-014 -9.85972e-014
rhumerus 8.64343 -33.9102 -84.3708
rradius 77.7772
rwrist -8.04195
rhand -33.5768 36.2643
rfingers 7.12502
rthumb -6.77108 6.39252
lclavicle -2.22639e-014 -9.85972e-014
lhumerus -19.2085 -26.0689 83.9307
lradius 62.2427
lwrist 5.77621
lhand -12.1641 28.1128
lfingers 7.12502
lthumb 13.8989 57.6283
rfemur -27.8025 5.90975 13.3403
rtibia 42.9884
rfoot -20.1722 -2.98005
rtoes -10.47
lfemur -36.1623 -0.934986 -22.3541
ltibia 30.1976
lfoot -10.5792 0.832767
ltoes 20.1874
593
root 10.6358 18.624 14.2381 -160.24 -5.30268 -178.84
lowerback 18.0279 -1.71191 -6.51391
upperback 8.11881 -4.7697 -1.46717
thorax -0.997744 -3.07418 2.99392
lowerneck -8.3078 -11.1664 -9.83775
upperneck 9.96574 -16.4498 21.0888
head 7.10079 -6.96889 6.77098
rclavicle 3.33958e-014 -1.43125e-014
rhumerus 8.09616 -32.1117 -84.2642
rradius 77.9586
rwrist -7.7199
rhand -34.3103 36.4394
rfingers 7.12502
rthumb -7.4791 6.59161
lclavicle 3.33958e-014 -1.43125e-014
lhumerus -19.8704 -25.114 84.1664
lradius 62.571
lwrist 5.72164
lhand -14.1915 27.8259
lfingers 7.12502
lthumb 11.9444 57.4651
rfemur -28.3246 6.38591 13.316
rtibia 42.5211
rfoot -20.4299 -2.97412
rtoes -9.30742
lfemur -35.8426 -0.66187 -22.4938
ltibia 30.0142
lfoot -10.6327 0.822423
ltoes 20.5101
594
root 10.6269 18.6217 14.2199 -160.331 -4.92995 -178.752
lowerback 17.6987 -1.88555 -6.58009
upperback 7.9694 -4.93343 -1.23804
thorax -0.94217 -3.14145 3.28192
lowerneck -8.28393 -10.8808 -9.63014
upperneck 9.99275 -15.9949 20.5474
head 6.9559 -6.78427 6.62261
rclavicle 4.45278e-014 -1.11319e-014
rhumerus 7.94889 -30.241 -84.2985
rradius 77.8321
rwrist -7.20607
rhand -34.6212 36.768
rfingers 7.12502
rthumb -7.77914 6.93114
lclavicle 4.45278e-014 -1.11319e-014
lhumerus -20.5924 -23.762 84.5181
lradius 62.8422
lwrist 5.72796
lhand -13.8626 28.6292
lfingers 7.12502
lthumb 12.2616 58.2498
rfemur -28.8234 6.91392 13.3977
rtibia 41.9393
rfoot -20.4752 -2.95852
rtoes -8.1546
lfemur -35.6273 -0.287664 -22.5336
ltibia 29.9627
lfoot -10.7633 0.767608
ltoes 20.7156
595
root 10.6057 18.6155 14.186 -160.836 -4.13776 -178.351
lowerback 17.4849 -1.88132 -6.32524
upperback 8.00888 -4.87008 -1.10155
thorax -0.804981 -3.11466 3.25541
lowerneck -8.50705 -10.5941 -9.13862
upperneck 10.1434 -15.551 19.7463
head 6.85274 -6.58931 6.32839
rclavicle -5.725e-014 1.43125e-014
rhumerus 8.12125 -28.8571 -84.671
rradius 77.6193
rwrist -6.47662
rhand -34.5658 37.1479
rfingers 7.12502
rthumb -7.72573 7.30907
lclavicle -5.725e-014 1.43125e-014
lhumerus -21.2205 -22.4558 84.692
lradius 62.9439
lwrist 5.81629
lhand -13.3407 28.4484
lfingers 7.12502
lthumb 12.7648 58.0382
rfemur -28.9139 7.56511 13.7257
rtibia 41.3507
rfoot -20.5056 -2.9788
rtoes -9.5998
lfemur -34.8748 -0.0715875 -22.1989
ltibia 29.8952
lfoot -11.2925 1.45137
ltoes 20.2691
596
root 10.5799 18.6322 14.1536 -161.334 -3.21155 -178.172
lowerback 17.2454 -1.79076 -6.20812
upperback 8.06036 -4.7283 -1.10888
thorax -0.650857 -3.05418 3.1398
lowerneck -8.79339 -10.3098 -8.47588
upperneck 10.4951 -15.1516 18.9117
head 6.8221 -6.39355 5.98921
rclavicle 2.22639e-014 1.74931e-014
rhumerus 8.23183 -27.5955 -84.8471
rradius 77.3082
rwrist -5.9897
rhand -34.7731 37.3076
rfingers 7.12502
rthumb -7.92577 7.47617
lclavicle 2.22639e-014 1.74931e-014
lhumerus -21.7808 -21.5108 84.7335
lradius 62.9847
lwrist 5.87122
lhand -13.3287 28.2611
lfingers 7.12502
lthumb 12.7764 57.8501
rfemur -29.0412 8.25855 13.7302
rtibia 40.843
rfoot -20.6382 -2.8006
rtoes -10.2941
lfemur -34.0487 -0.104877 -22.0529
ltibia 29.7542
lfoot -11.9756 2.47092
ltoes 19.7694
597
root 10.5587 18.6525 14.1308 -161.646 -2.40186 -178.364
lowerback 16.9816 -1.76468 -6.47774
upperback 7.97227 -4.70602 -1.1267
thorax -0.588429 -3.04523 3.25286
lowerneck -8.64941 -10.0113 -8.16173
upperneck 10.7795 -14.7435 18.5107
head 6.76522 -6.20202 5.87013
rclavicle 5.725e-014 5.40694e-014
rhumerus 8.34618 -26.172 -84.7744
rradius 76.6477
rwrist -5.51831
rhand -35.3935 37.5174
rfingers 7.12502
rthumb -8.52452 7.70943
lclavicle 5.725e-014 5.40694e-014
lhumerus -22.3231 -20.7711 84.8314
lradius 62.8937
lwrist 6.1789
lhand -14.1662 28.2758
lfingers 7.12502
lthumb 11.9688 57.9136
rfemur -29.4066 8.83122 13.3454
rtibia 40.4267
rfoot -20.6701 -2.55786
rtoes -9.61557
lfemur -33.4008 -0.00913597 -22.3687
ltibia 29.4839
lfoot -12.1722 2.96053
ltoes 20.373
598
root 10.5398 18.6631 14.1088 -161.955 -1.59727 -178.465
lowerback 16.8331 -1.75035 -6.6561
upperback 7.78868 -4.67734 -1.11182
thorax -0.692856 -3.01579 3.36238
lowerneck -8.26242 -9.71964 -7.90631
upperneck 10.9222 -14.3282 18.1504
head 6.63056 -6.02738 5.78258
rclavicle 3.65764e-014 -4.77083e-015
rhumerus 8.28601 -24.7545 -84.5479
rradius 75.9015
rwrist -5.05626
rhand -35.4452 38.1924
rfingers 7.12502
rthumb -8.57442 8.38646
lclavicle 3.65764e-014 -4.77083e-015
lhumerus -23.0055 -20.1984 85.0359
lradius 62.7437
lwrist 7.18039
lhand -15.5725 28.0206
lfingers 7.12502
lthumb 10.6126 57.7326
rfemur -29.8388 9.31074 13.0912
rtibia 40.0736
rfoot -20.5794 -2.33565
rtoes -10.2701
lfemur -32.7236 0.225934 -22.6261
ltibia 29.1198
lfoot -12.1445 3.40683
ltoes 20.9672
